<?xml version="1.0" standalone="no"?>
<!DOCTYPE svg PUBLIC "-//W3C//DTD SVG 20010904//EN"
 "http://www.w3.org/TR/2001/REC-SVG-20010904/DTD/svg10.dtd">
<svg version="1.0" xmlns="http://www.w3.org/2000/svg"
 width="512.000000pt" height="512.000000pt" viewBox="0 0 512.000000 512.000000"
 preserveAspectRatio="xMidYMid meet">

<g transform="translate(0.000000,512.000000) scale(0.100000,-0.100000)"
fill="#0000FF" stroke="none">
<path d="M2380 4960 c-468 -37 -895 -200 -1270 -483 -124 -94 -322 -287 -423
-412 -474 -589 -644 -1355 -462 -2085 110 -437 333 -821 666 -1145 321 -312
676 -509 1111 -615 364 -89 787 -85 1162 10 669 172 1266 665 1567 1295 161
338 231 650 232 1025 0 300 -37 526 -133 805 -167 485 -522 934 -970 1227
-421 276 -978 418 -1480 378z m648 -1005 c59 -32 101 -75 134 -138 19 -35 23
-58 23 -137 0 -85 -3 -100 -28 -145 -15 -27 -201 -252 -412 -498 -311 -362
-385 -454 -385 -477 0 -23 73 -113 376 -467 207 -241 387 -454 399 -474 81
-127 65 -313 -36 -403 -72 -66 -113 -81 -219 -81 -160 0 -125 -31 -707 646
-276 321 -515 607 -530 634 -25 45 -28 60 -28 145 0 87 2 99 30 147 34 60 994
1183 1042 1220 60 46 120 64 208 60 66 -3 90 -8 133 -32z"/>
</g>
</svg>
