<svg version="1.2" baseProfile="tiny-ps" xmlns="http://www.w3.org/2000/svg" viewBox="0 0 1189 1064" width="1189" height="1064">
	<title>Story 2</title>
	<style>
		tspan { white-space:pre }
		.s0 { fill: #80b7b3 } 
	</style>
	<g id="Story 2">
		<g id="Group 1" style="opacity: .5">
			<path id="Ellipse 1 copy" class="s0" d="m187.64 1003.69l-2.83-2.83l1000.56-1000.56l2.83 2.83l-1000.56 1000.56m488.61-512.65c5.86-5.86 15.36-5.86 21.21 0c5.86 5.86 5.86 15.36 0 21.21c-5.86 5.86-15.36 5.86-21.21 0c-5.86-5.86-5.86-15.36 0-21.21zm-673.61 572.65l-2.83-2.83l1000.56-1000.56l2.83 2.83l-1000.56 1000.56m775.61-801.65c5.86-5.86 15.36-5.86 21.21 0c5.86 5.86 5.86 15.36 0 21.21c-5.86 5.86-15.36 5.86-21.21 0c-5.86-5.86-5.86-15.36 0-21.21z" />
		</g>
	</g>
</svg>