<?xml version="1.0" standalone="no"?>
<!DOCTYPE svg PUBLIC "-//W3C//DTD SVG 20010904//EN"
 "http://www.w3.org/TR/2001/REC-SVG-20010904/DTD/svg10.dtd">
<svg version="1.0" xmlns="http://www.w3.org/2000/svg"
 width="512.000000pt" height="512.000000pt" viewBox="0 0 512.000000 512.000000"
 preserveAspectRatio="xMidYMid meet">

<g transform="translate(0.000000,512.000000) scale(0.100000,-0.100000)"
fill="#0000FF" stroke="none">
<path d="M2315 5113 c-352 -41 -617 -119 -905 -263 -413 -207 -775 -536 -1028
-936 -192 -304 -331 -708 -371 -1076 -16 -142 -13 -444 4 -588 81 -653 419
-1265 929 -1679 283 -230 661 -418 1011 -501 237 -56 318 -65 605 -65 281 0
366 9 585 60 368 86 734 265 1031 505 258 208 520 532 669 830 199 396 283
777 272 1230 -10 396 -83 699 -257 1055 -248 509 -654 918 -1159 1168 -274
136 -535 215 -831 252 -112 14 -465 19 -555 8z m322 -1074 c38 -14 1551 -1524
1569 -1566 45 -103 -17 -218 -128 -238 -80 -15 -68 -26 -812 711 l-700 692
-696 -691 c-480 -476 -707 -696 -735 -708 -53 -25 -92 -24 -145 4 -78 39 -112
137 -76 220 17 38 1527 1549 1571 1571 35 18 111 21 152 5z m501 -1168 l552
-564 0 -618 0 -619 -335 0 -334 0 -3 438 -3 437 -27 57 c-75 160 -255 259
-448 245 -184 -13 -342 -129 -391 -288 -17 -55 -19 -98 -19 -475 l0 -414 -330
0 -330 0 0 623 1 622 551 563 c303 309 554 561 557 560 4 -2 255 -257 559
-567z"/>
</g>
</svg>
