<?xml version="1.0" standalone="no"?>
<!DOCTYPE svg PUBLIC "-//W3C//DTD SVG 20010904//EN"
 "http://www.w3.org/TR/2001/REC-SVG-20010904/DTD/svg10.dtd">
<svg version="1.0" xmlns="http://www.w3.org/2000/svg"
 width="512.000000pt" height="512.000000pt" viewBox="0 0 512.000000 512.000000"
 preserveAspectRatio="xMidYMid meet">

<g transform="translate(0.000000,512.000000) scale(0.100000,-0.100000)"
fill="#0000FF" stroke="none">
<path d="M2375 4960 c-573 -49 -1073 -276 -1484 -675 -270 -262 -469 -567
-596 -908 -154 -417 -182 -938 -75 -1375 106 -431 305 -791 615 -1111 389
-401 862 -640 1420 -718 166 -23 475 -21 646 5 266 40 469 103 704 217 460
223 848 600 1088 1055 271 512 343 1123 202 1690 -110 437 -333 821 -666 1145
-325 315 -690 516 -1129 620 -208 49 -518 73 -725 55z m16 -1006 c46 -26 124
-112 556 -615 276 -321 515 -606 530 -634 25 -45 28 -60 28 -145 0 -85 -3
-100 -28 -145 -15 -27 -254 -313 -530 -635 -468 -545 -506 -587 -561 -615 -53
-27 -69 -30 -150 -30 -82 0 -96 3 -144 29 -60 33 -101 76 -134 139 -19 35 -23
58 -23 137 0 85 3 100 28 145 15 28 201 252 412 498 311 362 385 454 385 477
0 23 -73 113 -376 467 -207 241 -387 454 -399 474 -96 150 -57 354 84 441 62
39 102 48 187 45 67 -3 90 -8 135 -33z"/>
</g>
</svg>
